HIERARCHY
ROOT Hips
{
    OFFSET 0.000000 0.000000 0.000000
    CHANNELS 6 Xposition Yposition Zposition Zrotation Xrotation Yrotation
    JOINT Spine
    {
        OFFSET -0.000000 14.517291 0.000000
        CHANNELS 3 Zrotation Xrotation Yrotation
        JOINT Spine1
        {
            OFFSET -0.000000 37.558300 0.000000
            CHANNELS 3 Zrotation Xrotation Yrotation
            JOINT Neck
            {
                OFFSET -0.000000 37.404057 3.400369
                CHANNELS 3 Zrotation Xrotation Yrotation
                JOINT Head
                {
                    OFFSET -0.000000 24.785618 -3.540803
                    CHANNELS 3 Zrotation Xrotation Yrotation
                    End Site
                    {
                        OFFSET -0.000000 35.408028 0.000000
                    }
                }
            }
            JOINT LeftShoulder
            {
                OFFSET 6.992933 33.973492 -0.192664
                CHANNELS 3 Zrotation Xrotation Yrotation
                JOINT LeftArm
                {
                    OFFSET 21.527611 0.000000 0.000000
                    CHANNELS 3 Zrotation Xrotation Yrotation
                    JOINT LeftForeArm
                    {
                        OFFSET 56.353916 0.000000 0.000000
                        CHANNELS 3 Zrotation Xrotation Yrotation
                        JOINT LeftHand
                        {
                            OFFSET 47.774071 0.000000 0.000000
                            CHANNELS 3 Zrotation Xrotation Yrotation
                            End Site
                            {
                                OFFSET 26.556021 0.000000 0.000000
                            }
                        }
                    }
                }
            }
            JOINT RightShoulder
            {
                OFFSET -7.065357 33.973492 -0.192664
                CHANNELS 3 Zrotation Xrotation Yrotation
                JOINT RightArm
                {
                    OFFSET -21.527611 0.000000 0.000000
                    CHANNELS 3 Zrotation Xrotation Yrotation
                    JOINT RightForeArm
                    {
                        OFFSET -56.353916 0.000000 0.000000
                        CHANNELS 3 Zrotation Xrotation Yrotation
                        JOINT RightHand
                        {
                            OFFSET -47.774071 0.000000 0.000000
                            CHANNELS 3 Zrotation Xrotation Yrotation
                            End Site
                            {
                                OFFSET -26.556021 0.000000 0.000000
                            }
                        }
                    }
                }
            }
        }
    }
    JOINT LeftUpLeg
    {
        OFFSET 17.704014 0.000000 0.000000
        CHANNELS 3 Zrotation Xrotation Yrotation
        JOINT LeftLeg
        {
            OFFSET -0.000000 -81.181816 0.000000
            CHANNELS 3 Zrotation Xrotation Yrotation
            JOINT LeftFoot
            {
                OFFSET -0.000000 -62.821102 0.000000
                CHANNELS 3 Zrotation Xrotation Yrotation
                JOINT LeftToeBase
                {
                    OFFSET -0.000000 -11.507608 26.556021
                    CHANNELS 3 Zrotation Xrotation Yrotation
                    End Site
                    {
                        OFFSET -0.000000 0.000000 7.081605
                    }
                }
            }
        }
    }
    JOINT RightUpLeg
    {
        OFFSET -17.704014 0.000000 0.000000
        CHANNELS 3 Zrotation Xrotation Yrotation
        JOINT RightLeg
        {
            OFFSET -0.000000 -81.181816 0.000000
            CHANNELS 3 Zrotation Xrotation Yrotation
            JOINT RightFoot
            {
                OFFSET -0.000000 -62.821102 0.000000
                CHANNELS 3 Zrotation Xrotation Yrotation
                JOINT RightToeBase
                {
                    OFFSET -0.000000 -11.507608 26.556021
                    CHANNELS 3 Zrotation Xrotation Yrotation
                    End Site
                    {
                        OFFSET -0.000000 0.000000 7.081605
                    }
                }
            }
        }
    }
}
MOTION
Frames:    10
Frame Time:    0.008333
-26.128807    169.635803    -20.145332    -11.237774    -24.880539    47.031799    6.967823    1.500814    1.100767    3.329529    3.538306    0.294973    24.838465    9.992075    -1.354187    -4.056716    -9.836617    -3.799476    11.625285    5.132418    -16.051998    -37.101299    14.482224    -55.408279    -5.189392    -22.904512    -114.040314    -5.052790    -29.664480    -10.605061    8.073565    5.782088    -5.281894    24.138178    -1.264313    19.279587    -16.759529    -11.706890    72.022049    -11.495255    -2.145674    26.090708    29.353714    -1.798469    3.075341    -3.630038    27.730471    -19.289045    5.164740    -13.104423    30.156857    0.000000    0.000000    0.000000    -86.923256    -43.723877    -48.113716    8.951713    22.197504    -5.548299    13.360295    16.934790    -19.955309    0.000000    0.000000    0.000000    
-25.984781    169.449036    -20.286238    -11.169524    -24.570311    46.762287    6.623815    1.173625    0.617783    3.456098    4.067785    0.106509    25.076120    9.840684    -1.050085    -4.355672    -9.616935    -3.592885    11.585297    5.332434    -16.423397    -36.800613    14.374123    -55.570415    -4.696745    -23.853552    -113.566254    -5.567479    -29.782682    -11.024858    8.091470    5.681885    -5.510555    24.120773    -1.332343    19.822136    -16.273335    -11.437678    72.770897    -11.593590    -2.097234    26.132505    28.979736    -1.785888    3.319896    -3.602970    27.806940    -19.209623    5.315588    -13.282492    30.155649    0.000000    0.000000    0.000000    -87.412277    -43.965157    -48.405552    8.905917    22.080742    -5.600014    13.421263    17.280115    -20.063667    0.000000    0.000000    0.000000    
-25.838963    169.299927    -20.400278    -11.106551    -24.308111    46.510567    6.370442    0.930152    0.072352    3.497165    4.473921    -0.093575    25.262775    9.818762    -0.777748    -4.588171    -9.452451    -3.372436    11.513705    5.555109    -16.776943    -36.379856    14.313237    -55.648449    -4.329249    -24.803339    -113.262115    -5.789008    -30.137804    -11.193798    8.133774    5.634996    -5.677254    24.141375    -1.525067    20.330862    -15.658961    -11.007206    73.622246    -11.672273    -1.955111    26.088909    28.657698    -1.746154    3.537929    -3.589513    27.859295    -19.131626    5.433361    -13.419235    30.163265    0.000000    0.000000    0.000000    -87.805748    -44.181053    -48.657791    8.844110    21.967165    -5.597655    13.482766    17.537882    -20.165625    0.000000    0.000000    0.000000    
-25.699938    169.158875    -20.532570    -11.071437    -24.058264    46.196293    6.167698    0.699696    -0.436560    3.486907    4.862900    -0.280430    25.504618    9.782859    -0.496281    -4.859807    -9.254442    -3.156089    11.498539    5.882341    -17.025179    -35.883060    14.320321    -55.928913    -3.792788    -25.979378    -112.783104    -6.333386    -30.444374    -11.604651    8.220225    5.640429    -5.876792    24.132837    -1.584257    20.916290    -15.197242    -10.722260    74.308289    -11.710488    -1.887784    26.119362    28.355463    -1.691158    3.791431    -3.562461    27.904348    -19.042225    5.532189    -13.569343    30.153214    0.000000    0.000000    0.000000    -88.164986    -44.478577    -48.908924    8.735613    21.859768    -5.676380    13.566043    17.857353    -20.220606    0.000000    0.000000    0.000000    
-25.552687    169.031052    -20.663462    -11.018515    -23.859596    45.870811    5.971998    0.533751    -0.947995    3.491033    5.231491    -0.465512    25.752100    9.736239    -0.188834    -5.123526    -9.026361    -2.911895    11.427491    6.090561    -17.379461    -35.484180    14.236964    -55.967560    -3.388607    -26.860344    -112.379211    -6.718779    -30.677414    -12.022292    8.333406    5.608213    -6.023364    24.089281    -1.612935    21.442425    -14.677652    -10.448379    74.988510    -11.594193    -1.849103    26.143003    28.078440    -1.583680    4.039054    -3.536780    27.948202    -18.923523    5.643615    -13.700918    30.123510    0.000000    0.000000    0.000000    -88.516884    -44.829124    -49.147007    8.648013    21.880272    -5.718364    13.644567    18.149658    -20.317469    0.000000    0.000000    0.000000    
-25.417152    168.903488    -20.786152    -10.969486    -23.660072    45.539627    5.728610    0.404911    -1.445331    3.578221    5.530667    -0.647215    26.072790    9.769881    0.077627    -5.522285    -8.865348    -2.727147    11.310596    6.378310    -17.759197    -35.076874    14.151941    -56.017384    -3.049950    -27.760683    -112.033936    -7.037862    -31.037104    -12.408922    8.456553    5.570557    -6.168130    24.030025    -1.709093    21.899309    -14.086369    -10.112280    75.683846    -11.522358    -1.885529    26.779655    27.810717    -1.481546    4.282210    -3.517619    27.988436    -18.816849    5.725456    -13.840543    30.118729    0.000000    0.000000    0.000000    -88.775665    -45.132507    -49.340721    8.532481    21.732821    -5.784548    13.716797    18.459942    -20.343317    0.000000    0.000000    0.000000    
-25.275642    168.778091    -20.919495    -10.933244    -23.450331    45.211185    5.476044    0.172840    -1.936253    3.677584    5.983685    -0.834085    26.420153    9.710870    0.407134    -5.990679    -8.651873    -2.512721    11.222238    6.618949    -18.145142    -34.668922    13.985487    -56.072464    -2.665749    -28.577955    -111.627884    -7.154742    -31.288231    -12.721085    8.564858    5.511946    -6.298525    23.908058    -1.686369    22.454157    -13.843083    -9.690832    76.230782    -11.814833    -1.476625    25.522337    27.539276    -1.409466    4.496808    -3.519138    28.043804    -18.665228    5.820473    -13.972104    30.105463    0.000000    0.000000    0.000000    -89.039391    -45.417023    -49.558609    8.426739    21.560398    -5.849766    13.736529    18.792740    -20.331087    0.000000    0.000000    0.000000    
-25.135649    168.652985    -21.071507    -10.923256    -23.259806    44.810444    5.272998    0.015900    -2.370934    3.768286    6.334802    -0.997733    26.722383    9.657247    0.716662    -6.381437    -8.417583    -2.295724    11.114415    6.895766    -18.497049    -34.234100    13.871831    -56.174088    -2.318844    -29.463581    -111.256668    -7.275476    -31.679512    -12.801727    8.685905    5.607410    -6.557350    23.810881    -1.980622    23.147333    -13.262719    -9.158500    76.787361    -11.975409    -1.343855    25.614147    27.292217    -1.312643    4.757604    -3.512491    28.096895    -18.509373    5.905713    -14.118581    30.097784    0.000000    0.000000    0.000000    -89.255737    -45.762138    -49.754734    8.322129    21.344378    -5.910542    13.765285    19.189863    -20.362005    0.000000    0.000000    0.000000    
-24.997437    168.517212    -21.200037    -10.892318    -23.056751    44.435940    5.020571    -0.175081    -2.807882    3.869628    6.741317    -1.165506    26.974342    9.553770    1.036617    -6.666377    -8.145797    -2.051437    11.041871    7.164225    -18.906771    -33.855537    13.670388    -56.189774    -2.103207    -30.180717    -110.929878    -8.373567    -31.943916    -13.572677    8.852144    5.556104    -6.682250    23.660933    -2.115466    23.616213    -12.851297    -8.771187    77.325554    -12.149366    -1.232234    25.678873    27.031563    -1.223043    4.989784    -3.526425    28.163836    -18.343447    6.027462    -14.266806    30.102768    0.000000    0.000000    0.000000    -89.524857    -46.091583    -49.984413    8.226270    21.165693    -5.999470    13.758474    19.561209    -20.334618    0.000000    0.000000    0.000000    
-24.838924    168.349960    -21.354080    -10.863473    -22.793819    44.050190    4.785699    -0.382150    -3.226828    3.952633    7.106860    -1.325446    27.192225    9.388347    1.378102    -6.996074    -7.782196    -1.801179    10.903279    7.431315    -19.288578    -33.439407    13.490557    -56.194275    -1.775121    -30.957504    -110.580345    -8.895848    -32.208775    -13.989197    8.924993    5.503844    -6.798702    23.573685    -2.165947    24.047211    -12.549493    -8.481867    77.842911    -12.143840    -1.105743    25.816628    26.702612    -1.178223    5.237005    -3.510719    28.236401    -18.180338    6.146265    -14.447229    30.112837    0.000000    0.000000    0.000000    -89.911575    -46.422302    -50.296753    8.141769    20.981298    -6.099780    13.769487    19.996450    -20.345572    0.000000    0.000000    0.000000    
